<?xml version="1.0" encoding="UTF-8" standalone="no"?>
<!-- Created with Inkscape (http://www.inkscape.org/) -->

<svg
   width="412.52002mm"
   height="125.03774mm"
   viewBox="0 0 412.52002 125.03774"
   version="1.1"
   id="svg1"
   xml:space="preserve"
   inkscape:version="1.3.2 (091e20e, 2023-11-25)"
   sodipodi:docname="logo.svg"
   xmlns:inkscape="http://www.inkscape.org/namespaces/inkscape"
   xmlns:sodipodi="http://sodipodi.sourceforge.net/DTD/sodipodi-0.dtd"
   xmlns="http://www.w3.org/2000/svg"
   xmlns:svg="http://www.w3.org/2000/svg"><sodipodi:namedview
     id="namedview1"
     pagecolor="#ffffff"
     bordercolor="#111111"
     borderopacity="1"
     inkscape:showpageshadow="0"
     inkscape:pageopacity="0"
     inkscape:pagecheckerboard="1"
     inkscape:deskcolor="#d1d1d1"
     inkscape:document-units="mm"
     inkscape:zoom="0.56190152"
     inkscape:cx="748.35178"
     inkscape:cy="92.542907"
     inkscape:window-width="2144"
     inkscape:window-height="851"
     inkscape:window-x="0"
     inkscape:window-y="25"
     inkscape:window-maximized="0"
     inkscape:current-layer="layer1" /><defs
     id="defs1" /><g
     inkscape:label="Livello 1"
     inkscape:groupmode="layer"
     id="layer1"
     transform="translate(107.73084,-89.122067)"><path
       id="path10"
       style="fill:#e6770b;fill-opacity:1;stroke-width:1.5;stroke-linecap:round"
       d="m -42.685767,89.140295 c -2.092839,-0.03192 -4.198803,-0.02191 -6.318994,0.02997 -14.949545,0.365794 -28.071641,2.52452 -41.361299,6.804236 -6.511973,2.097068 -8.181069,3.810742 -10.44226,10.721309 -3.07613,9.40128 -5.2862,19.83223 -6.46627,30.51545 -0.60766,5.50114 -0.60867,23.99731 -10e-4,29.4566 1.06039,9.53537 3.14946,19.74768 5.87251,28.70368 2.522654,8.29697 3.78962,9.62721 11.476299,12.04887 8.631258,2.7193 18.806964,4.86804 28.222567,5.95933 7.279716,0.84374 7.241875,0.84216 18.520833,0.7245 8.284531,-0.0864 11.770425,-0.27088 16.0507,-0.84956 9.753867,-1.31874 18.9143305,-3.34145 27.39677757,-6.04924 6.24036813,-1.99206 7.81458553,-3.64048 10.00972543,-10.48101 2.805965,-8.74402 4.843706,-17.81533 5.96501,-26.55135 2.363436,-18.41346 1.372989,-36.14761 -3.013253,-53.95227 C 10.649345,105.76374 9.4825376,102.49637 7.5592285,100.35718 5.6179455,98.198013 4.5967001,97.646728 -0.49816081,96.005509 -14.041405,91.642802 -28.03589,89.363766 -42.685767,89.140295 Z m -0.948779,8.461499 c 7.190008,0.04927 13.509373,0.39943 14.255977,1.01906 0.283836,0.235559 0.468698,0.759976 0.410828,1.164786 -0.121249,0.84817 -0.78429,1.00364 -6.807853,1.59784 -4.739682,0.46756 -9.132764,1.37603 -13.628109,2.81791 -2.904274,0.93154 -3.601477,1.31064 -4.801257,2.61225 -2.084708,2.26161 -3.915997,8.10375 -5.215702,16.63929 -0.845329,5.55147 -0.819289,16.03836 0.05219,21.16667 0.362693,2.13427 0.660156,5.02011 0.660941,6.41304 0.0016,2.82221 -0.402707,3.63007 -2.778125,5.55263 l -1.322916,1.07074 -8.884729,0.0393 c -7.90546,0.0353 -9.216025,0.12492 -11.884029,0.81081 -6.976999,1.79362 -7.570036,2.23256 -8.943641,6.6244 -0.795485,2.54341 -1.801736,8.25516 -2.073258,11.76827 -0.08527,1.10324 -0.213858,1.24599 -1.208712,1.34256 -0.612377,0.0594 -1.209319,-0.047 -1.326534,-0.23668 -0.322285,-0.52147 -1.531709,-8.8641 -1.950268,-13.45344 -0.478629,-5.248 -0.477553,-19.15554 0.0021,-24.93957 0.647787,-7.81302 2.427809,-17.99208 4.244702,-24.27293 1.699415,-5.87477 2.921104,-9.2237 3.623551,-9.93428 1.790536,-1.81127 15.835782,-5.3181 28.093376,-7.01456 4.230656,-0.585522 12.29149,-0.837331 19.481498,-0.788066 z m 16.846517,12.351706 c 6.320456,0.0467 12.703305,0.9393 18.5125651,2.67373 l 2.100647,0.62736 0.6309692,2.10064 c 2.0115205,6.69741 2.9966641,15.89975 2.4220744,22.62343 -0.4177854,4.88877 -1.7695187,12.13815 -2.7631388,14.81821 l -0.6304525,1.70016 -2.8122314,0.80564 c -1.546656,0.443 -4.641507,1.10528 -6.877616,1.47174 -4.105745,0.67286 -11.73587,1.108 -14.984615,0.85421 -3.198099,-0.24984 -10.634518,-1.55639 -13.448792,-2.36265 l -2.765206,-0.79219 -0.627352,-1.68879 c -0.344861,-0.92882 -1.05489,-3.7017 -1.578198,-6.1619 -0.87301,-4.10414 -0.952872,-5.14211 -0.964282,-12.58683 -0.01331,-8.68545 0.260418,-10.93566 2.150773,-17.68677 l 0.90227,-3.22255 2.594674,-0.77049 c 5.559586,-1.65046 11.817455,-2.44965 18.137911,-2.40295 z m 33.9436646,26.40459 c 0.034694,-0.0154 0.070415,-0.0124 0.107487,0.008 0.098858,0.0552 0.2067309,0.23822 0.324528,0.54519 0.1228866,0.32024 0.404773,3.49986 0.6268351,7.06624 0.6186513,9.93568 -0.2583186,22.93459 -2.2210531,32.92098 -1.5638609,7.95696 -4.801075,19.38326 -5.78310952,20.41168 -0.63959736,0.6698 -9.60956888,3.36529 -15.52515008,4.66535 -2.716381,0.59693 -7.71703,1.48158 -11.1125,1.96628 -5.230824,0.74669 -7.816756,0.90107 -16.933334,1.01079 -11.033772,0.13279 -15.140932,-0.11442 -23.635766,-1.42265 -7.075681,-1.08968 -7.432826,-1.65811 -1.419035,-2.26032 4.918105,-0.49252 10.835913,-1.8424 12.719637,-2.90112 1.700396,-0.95568 2.572945,-2.55592 3.646806,-6.689 1.283472,-4.9398 1.766861,-9.93246 1.511019,-15.59956 -0.237535,-5.26154 0.01929,-6.56077 1.638142,-8.29459 1.883595,-2.01732 3.257595,-2.1807 9.243364,-1.1007 5.728043,1.0335 16.011765,1.28989 21.695833,0.54105 4.868411,-0.64138 8.8154082,-1.49224 13.496334,-2.9099 3.4318502,-1.03936 5.486886,-2.49236 6.582544,-4.65346 1.6503024,-3.25516 3.9116894,-13.54242 4.4508911,-20.24683 0.1570345,-1.95257 0.3436712,-2.94988 0.5865275,-3.05769 z M -73.356246,165.3558 c 4.807713,0.0115 11.402336,1.12663 12.216825,2.20245 0.21407,0.28275 0.688728,1.82564 1.054716,3.42821 0.995857,4.36059 0.876865,12.04176 -0.252697,16.3189 -0.82878,3.13824 -0.854483,3.18023 -2.209168,3.62252 -0.753804,0.24611 -2.719252,0.68301 -4.367692,0.97048 -4.869188,0.84912 -10.971775,0.55928 -15.604215,-0.74052 l -2.04432,-0.57361 -0.553971,-1.99212 c -1.006782,-3.6227 -1.373792,-7.16941 -1.174089,-11.34091 0.213218,-4.45385 1.275759,-9.43304 2.149223,-10.07174 0.765931,-0.56006 5.441647,-1.48791 8.856307,-1.75752 0.591816,-0.0467 1.242266,-0.0681 1.929081,-0.0661 z"
       inkscape:label="Conference Logo" /><g
       id="g32"
       inkscape:label="Conference Name"><path
         id="path25"
         style="fill:#585858;fill-opacity:1"
         d="m 258.61729,120.39782 v 27.74663 27.74662 l 13.8467,-0.13694 c 11.66962,-0.11553 14.17895,-0.23142 15.96285,-0.73639 7.35058,-2.08076 12.14244,-6.83697 14.82028,-14.71021 1.30486,-3.83645 1.69625,-7.47671 1.49035,-13.86634 -0.21522,-6.6788 -0.88795,-9.75729 -3.13417,-14.34538 -1.79343,-3.66314 -5.7144,-7.81318 -8.76639,-9.27798 -4.24193,-2.03594 -5.00283,-2.12164 -20.1967,-2.27687 z m 10.58333,8.41654 6.96754,0.2036 c 5.65476,0.16509 7.40591,0.34088 9.29659,0.93328 4.21656,1.32116 6.94319,4.70688 8.11888,10.08207 0.67625,3.09181 0.58756,13.7465 -0.14159,17.02687 -0.69824,3.14129 -2.46633,6.55509 -4.00234,7.72666 -2.63092,2.0067 -4.25976,2.33193 -12.56616,2.50889 l -7.67292,0.1633 v -19.32234 z" /><path
         style="fill:#585858;fill-opacity:1"
         d="m 121.73934,151.14581 h 10.05417 10.05416 v 4.7625 4.7625 h -10.05416 -10.05417 v -4.7625 z"
         id="path32" /><path
         style="fill:#585858;fill-opacity:1"
         d="m 201.7696,120.45415 h 5.14025 5.14077 l 0.007,18.08003 c 0.004,10.21015 0.16098,19.14758 0.36122,20.53311 0.56651,3.92002 2.44598,6.46225 5.98154,8.09098 1.29716,0.59756 2.29707,0.73294 5.46789,0.73794 4.68153,0.008 6.06574,-0.4164 8.35969,-2.56212 2.9181,-2.72952 2.85933,-2.2414 3.02101,-25.03619 l 0.14107,-19.84375 h 5.10977 5.11028 l -0.13901,20.54913 c -0.14934,22.06881 -0.18781,22.56239 -2.06964,26.56582 -1.77639,3.77909 -6.14692,7.10613 -11.06651,8.42378 -2.57654,0.69008 -10.69395,0.99918 -14.03222,0.53433 -8.29166,-1.15459 -13.69785,-5.68199 -15.66106,-13.11548 -0.50224,-1.90174 -0.60407,-5.06632 -0.72812,-22.58467 z"
         id="path28" /><path
         style="fill:#585858;fill-opacity:1"
         d="m 149.25601,120.45415 h 20.46128 20.46128 v 4.23333 4.23333 h -15.1629 -15.16289 l -0.19534,0.79375 c -0.1076,0.43657 -0.15049,3.41313 -0.0951,6.61459 l 0.10077,5.82083 14.19914,0.0925 14.19965,0.092 v 4.4018 4.4018 l -14.19965,0.092 -14.19914,0.092 v 7.9375 7.9375 l 15.78664,0.092 15.78715,0.092 v 4.22971 4.22972 H 170.24645 149.256 v -27.6934 z"
         id="path27" /><path
         style="fill:#585858;fill-opacity:1"
         d="m 48.361906,120.45415 h 5.114933 5.11545 v 27.69288 27.6934 h -5.11545 -5.114933 v -27.6934 z"
         id="path26" /><path
         style="fill:#585858;fill-opacity:1"
         d="m 89.989339,119.63197 c 5.641763,0.0199 8.884098,0.65443 12.372371,2.42208 2.58448,1.30965 5.43234,4.27139 6.68796,6.95461 0.96388,2.05976 2.03959,6.09428 1.71204,6.42183 -0.0785,0.0785 -2.48266,0.25631 -5.3423,0.39533 -4.95617,0.24096 -5.19979,0.22168 -5.20279,-0.41548 -0.007,-1.27244 -1.675276,-4.25091 -2.987413,-5.33249 -1.842587,-1.51882 -3.981478,-2.04558 -8.121468,-1.99988 -6.622904,0.0731 -10.300695,2.65301 -9.54257,6.69417 0.559689,2.98338 3.251883,4.50928 11.726933,6.64662 11.715328,2.95452 15.839278,5.07997 18.757508,9.66607 2.38402,3.74657 3.01809,9.85306 1.45314,13.99553 -2.20092,5.82603 -6.36181,9.38377 -12.822985,10.96367 -2.645389,0.64686 -10.919652,0.93893 -13.792957,0.4868 -8.831306,-1.38963 -14.624626,-6.64856 -16.657898,-15.12053 -0.472146,-1.96728 -0.513798,-2.60794 -0.182417,-2.81275 0.562529,-0.34766 9.215341,-1.16074 9.629386,-0.90485 0.175587,0.10852 0.31936,0.42015 0.31936,0.69246 0,0.27232 0.338675,1.4012 0.752926,2.50838 0.916087,2.44847 3.020316,4.81091 5.406388,6.07043 1.661271,0.87686 2.079057,0.93896 6.363953,0.93896 4.069081,0 4.7946,-0.0944 6.435266,-0.83612 3.398438,-1.5363 5.269388,-4.48538 4.950598,-7.80315 -0.35039,-3.64649 -2.61327,-5.02807 -12.328959,-7.52719 -6.581737,-1.69296 -10.572345,-3.1206 -12.989905,-4.64674 -4.917976,-3.10459 -7.794668,-9.29826 -6.75411,-14.5433 0.932935,-4.70252 3.81462,-8.48599 8.118885,-10.65878 3.4915,-1.76251 6.233287,-2.27608 12.039058,-2.25568 z"
         id="path20" /></g></g></svg>
